<?xml version="1.0" encoding="UTF-8"?>
<svg width="19px" height="16px" viewBox="0 0 19 16" version="1.1" xmlns="http://www.w3.org/2000/svg" xmlns:xlink="http://www.w3.org/1999/xlink">
    <title>Shape</title>
    <g id="Page-1" stroke="none" stroke-width="1" fill="none" fill-rule="evenodd">
        <g id="Desktop-HD-Copy" transform="translate(-934.000000, -616.000000)" fill="#CF1D39" fill-rule="nonzero">
            <path d="M943.499892,622.230563 C941.808058,622.230563 940.436062,623.629962 940.436062,625.356574 C940.436062,627.083186 941.808022,628.482732 943.499892,628.482732 C945.192159,628.482732 946.563721,627.083223 946.563721,625.356574 C946.563721,623.629815 945.192159,622.230563 943.499892,622.230563 Z M950.272568,618.179963 L947.888387,618.179963 C947.618107,616.933129 946.529811,616 945.227043,616 L941.772452,616 C940.469684,616 939.38138,616.933129 939.111505,618.179963 L936.727324,618.179963 C935.221347,618.179963 934,619.425509 934,620.962639 L934,629.217324 C934,630.754307 935.221203,632 936.727324,632 L950.272676,632 C951.778653,632 953,630.754454 953,629.217324 L953,620.962271 C952.999718,619.425288 951.778548,618.179742 950.272427,618.179742 L950.272568,618.179963 Z M943.499892,629.982466 C940.995943,629.982466 938.966016,627.911231 938.966016,625.356206 C938.966016,622.801438 940.996051,620.730313 943.499892,620.730313 C946.003733,620.730313 948.033768,622.801549 948.033768,625.356206 C948.033768,627.911268 946.003841,629.982466 943.499892,629.982466 Z M950.301067,621.599693 C949.783069,621.599693 949.363556,621.171371 949.363556,620.643155 C949.363556,620.114902 949.782925,619.686617 950.301067,619.686617 C950.818812,619.686617 951.238578,620.114792 951.238578,620.643155 C951.238578,621.171407 950.818776,621.599693 950.301067,621.599693 Z" id="Shape"></path>
        </g>
    </g>
</svg>