<?xml version="1.0" encoding="UTF-8"?>
<svg width="306.088561px" height="350px" viewBox="0 0 306.088561 350" version="1.1" xmlns="http://www.w3.org/2000/svg" xmlns:xlink="http://www.w3.org/1999/xlink">
    <title>Group</title>
    <g id="Page-1" stroke="none" stroke-width="1" fill="none" fill-rule="evenodd">
        <g id="Group" transform="translate(153.044280, 175.000000) scale(-1, 1) rotate(-180.000000) translate(-153.044280, -175.000000) translate(0.000000, 0.000000)" fill="#CF1D39" fill-rule="nonzero">
            <path d="M24.428428,121.678571 L23.2839044,121.821429 C21.0306232,122.107143 19.349604,123.285714 18.2050803,125.357143 C6.08028223,147.892857 1.10971116e-14,171.821429 1.10971116e-14,197.178571 C1.10971116e-14,210.964285 1.82408467,224.499998 5.50802039,237.749999 C9.19195609,250.999999 14.3065464,263.178571 20.8875578,274.285713 C27.4685692,285.428572 35.4802351,295.678571 44.9225557,305.142859 C54.3648763,314.571429 64.7013562,322.571428 75.896229,329.142856 C87.0911015,335.714287 99.2874322,340.821429 112.485221,344.499999 C125.68301,348.178571 139.202697,350 153.04428,350 C164.882948,350 176.542783,348.678571 188.023786,346.000002 C199.504791,343.321428 210.270466,339.464284 220.320815,334.464286 C230.371165,329.428571 239.849251,323.428572 248.683542,316.428572 C257.517835,309.428572 265.457969,301.535714 272.468176,292.678571 C279.478384,283.857142 285.487135,274.428572 290.53019,264.357145 C295.573249,254.321427 299.40025,243.571428 302.082726,232.107141 C304.765205,220.642856 306.088561,208.999999 306.088561,197.178571 C306.088561,171.821429 300.008278,147.892857 287.88348,125.357143 C286.846256,123.285714 285.165237,122.107143 282.804655,121.821429 L281.660134,121.678571 C279.764515,121.678571 278.119261,122.392857 276.724374,123.785714 L269.535333,130.964286 C268.140447,132.357143 267.425119,134 267.425119,135.892857 C267.425119,137.035714 267.675482,138.107143 268.140447,139.142857 C277.439702,157.464286 282.089329,176.785714 282.089329,197.178571 C282.089329,207.214286 280.944804,217.071429 278.691524,226.678571 C276.438242,236.285716 273.183504,245.357142 268.89154,253.785716 C264.599576,262.249999 259.520753,270.178571 253.655068,277.642857 C247.789383,285.107144 241.101074,291.785713 233.625903,297.642856 C226.150733,303.499999 218.174832,308.571428 209.733971,312.857143 C201.257341,317.142857 192.208451,320.392856 182.587299,322.642859 C172.966146,324.892857 163.094629,326.035714 153.04428,326.035714 C142.993932,326.035714 133.122415,324.892857 123.501262,322.642859 C113.88011,320.392856 104.795453,317.142857 96.3545902,312.857143 C87.8779615,308.571428 79.9378281,303.499999 72.4626577,297.642856 C64.987487,291.785713 58.2991768,285.107144 52.4334925,277.642857 C46.5678086,270.178571 41.4889847,262.214285 37.1970208,253.785716 C32.9050569,245.321428 29.6503175,236.285716 27.3970364,226.678571 C25.1437552,217.071429 23.9992318,207.214286 23.9992318,197.178571 C23.9992318,176.785714 28.6488593,157.464286 37.9481145,139.142857 C38.4130772,138.107143 38.6634417,137.035714 38.6634417,135.892857 C38.6634417,134 37.9481145,132.357143 36.553226,130.964286 L29.3641865,123.785714 C27.9692984,122.392857 26.3240453,121.678571 24.428428,121.678571 Z M67.312301,164.5 C66.7400392,164.5 66.1677774,164.607143 65.6312818,164.785714 C62.9845706,165.428571 61.3035515,167.035714 60.5524577,169.571428 C57.8342141,178.5 56.4750921,187.678572 56.4750921,197.178571 C56.4750921,210.214286 59.0502705,222.714287 64.1648607,234.642856 C69.2794511,246.571428 76.1465935,256.821429 84.7662875,265.428573 C93.385982,274.035714 103.650929,280.857144 115.596895,286 C127.542861,291.142859 140.06109,293.678572 153.115813,293.678572 C161.878573,293.678572 170.426734,292.535715 178.796064,290.214287 C187.165394,287.928571 194.890928,284.678573 201.936902,280.5 C208.982876,276.321428 215.492356,271.285716 221.393806,265.357141 C227.331024,259.428571 232.374081,252.964285 236.558745,245.928571 C240.743411,238.892856 243.998148,231.178572 246.287197,222.821428 C248.576246,214.464285 249.756533,205.928571 249.756533,197.178571 C249.756533,187.678572 248.397413,178.5 245.679169,169.571428 C244.928075,167.035714 243.247056,165.428571 240.600346,164.785714 C240.028081,164.607143 239.455821,164.5 238.919327,164.5 C236.952176,164.5 235.306922,165.214286 233.983568,166.607143 L225.650005,174.928571 C224.255116,176.25 223.539788,177.892857 223.539788,179.857143 C223.539788,180.428572 223.647088,181 223.825919,181.535714 C225.149273,187.071428 225.793068,192.285714 225.793068,197.178571 C225.793068,207.035714 223.861686,216.428571 219.998918,225.357143 C216.136151,234.285714 210.985794,241.964287 204.476314,248.464284 C198.002603,254.928573 190.277068,260.107141 181.335476,263.964287 C172.393884,267.821429 162.98733,269.750001 153.115813,269.750001 C143.244296,269.750001 133.837742,267.821429 124.89615,263.964287 C115.954559,260.107141 108.26479,254.964286 101.755312,248.464284 C95.2815994,242 90.0954762,234.285714 86.2327087,225.357143 C82.369941,216.428571 80.4385574,207.035714 80.4385574,197.178571 C80.4385574,192.285714 81.082352,187.071428 82.4057075,181.535714 C82.5845392,180.964286 82.6918383,180.392857 82.6918383,179.857143 C82.6918383,177.892857 81.9765111,176.25 80.5816228,174.928571 L72.2480595,166.607143 C70.924704,165.214286 69.2794511,164.5 67.312301,164.5 Z M153.080047,154.928571 C145.354512,154.928571 138.272771,156.821429 131.799059,160.571428 C125.325347,164.321428 120.17499,169.464286 116.419521,176 C112.664053,182.535714 110.768436,189.607143 110.768436,197.214286 C110.768436,208.857143 114.917334,218.821429 123.179365,227.071429 C131.441395,235.321429 141.420211,239.464287 153.080047,239.464287 C164.739882,239.464287 174.718698,235.321429 182.980729,227.071429 C191.242759,218.821429 195.391658,208.857143 195.391658,197.214286 C195.391658,185.571429 191.242759,175.607143 182.980729,167.357143 C174.718698,159.071428 164.739882,154.928571 153.080047,154.928571 Z M153.080047,0 C149.789541,0 146.7494,0.5 143.923857,1.53571429 C141.098314,2.57142855 138.7735,3.89285715 136.949416,5.53571427 C135.125331,7.17857142 133.444312,9 131.942124,11.0357143 C130.439937,13.0714286 129.259647,15.0714286 128.401254,17.1071429 C127.542861,19.1428571 126.8633,20.9642858 126.291038,22.6071428 C125.718777,24.2500001 125.361113,25.5714286 125.146515,26.6071429 L124.860384,28.1428572 L110.768436,112.642857 C110.768436,120.428571 113.522446,127.071429 119.030466,132.571428 C124.538487,138.071428 131.191031,140.821429 138.988099,140.821429 L167.207761,140.821429 C172.286585,140.821429 176.971979,139.571428 181.29971,137.035714 C185.62744,134.5 189.061011,131.071428 191.600423,126.75 C194.139835,122.428571 195.391658,117.75 195.391658,112.678571 L181.29971,28.1785716 C181.192411,27.7857143 181.120878,27.2500002 181.013579,26.5714287 C180.90628,25.8571429 180.584382,24.5357142 179.940588,22.642857 C179.296793,20.7500001 178.617232,18.8571429 177.830372,17.0714286 C177.043512,15.2857143 175.863222,13.3214286 174.289502,11.1428571 C172.751548,9 171.034763,7.14285713 169.210678,5.57142859 C167.386593,4.0357143 165.061779,2.71428572 162.236237,1.64285714 C159.410694,0.535714286 156.370552,0 153.080047,0 Z" id="Shape"></path>
        </g>
    </g>
</svg>