<?xml version="1.0" encoding="UTF-8"?>
<svg width="351px" height="350px" viewBox="0 0 351 350" version="1.1" xmlns="http://www.w3.org/2000/svg" xmlns:xlink="http://www.w3.org/1999/xlink">
    <title>Group</title>
    <g id="Page-1" stroke="none" stroke-width="1" fill="none" fill-rule="evenodd">
        <g id="Extra-Large" transform="translate(-1420.000000, -272.000000)" fill="#CF1D39" fill-rule="nonzero">
            <g id="Group" transform="translate(1420.468550, 272.000000)">
                <path d="M174.756944,0 C78.1111111,0 0,78.6111111 0,175.25 C0,271.895833 78.1180556,350 174.756944,350 C271.895833,350 350,271.895833 350,175.25 C350,78.6111111 271.888889,0 174.756944,0 Z M174.756944,291.909722 C110.664583,291.909722 58.0902778,239.34375 58.0902778,175.256944 C58.0902778,110.6625 110.664583,58.5902778 174.756944,58.5902778 C239.343056,58.5902778 291.423611,110.657639 291.423611,175.256944 C291.420899,239.349306 239.345833,291.909722 174.756944,291.909722 Z" id="Shape"></path>
                <path d="M174.756944,121.173611 C145.213194,121.173611 120.685417,145.210417 120.685417,175.25625 C120.685417,204.791667 145.215972,229.320139 174.756944,229.320139 C204.794444,229.320139 228.822917,204.789583 228.822917,175.25625 C228.822917,145.210417 204.788889,121.173611 174.756944,121.173611 Z" id="Path"></path>
            </g>
        </g>
    </g>
</svg>