<?xml version="1.0" encoding="UTF-8"?>
<svg width="350px" height="350px" viewBox="0 0 350 350" version="1.1" xmlns="http://www.w3.org/2000/svg" xmlns:xlink="http://www.w3.org/1999/xlink">
    <title>Shape</title>
    <g id="Page-1" stroke="none" stroke-width="1" fill="none" fill-rule="evenodd">
        <g id="Extra-Large" transform="translate(-979.000000, -272.000000)" fill="#CF1D39" fill-rule="nonzero">
            <path d="M1154,272 C1107.58658,272 1063.07565,290.437368 1030.25713,323.257134 C997.437368,356.074399 979,400.587832 979,447 C979,493.412168 997.437368,537.924351 1030.25713,570.742866 C1063.0744,603.562632 1107.58783,622 1154,622 C1200.41217,622 1244.92435,603.562632 1277.74287,570.742866 C1310.56263,537.925601 1329,493.412168 1329,447 C1329,416.282719 1320.91381,386.104185 1305.55517,359.500625 C1290.19403,332.897065 1268.10418,310.807223 1241.49938,295.444833 C1214.89582,280.086192 1184.71728,272 1154,272 L1154,272 Z M1185.00103,520.460725 L1182.86723,527.604424 C1182.50591,528.84954 1181.76861,529.953032 1180.75787,530.763589 C1168.71233,540.001648 1153.27994,543.629747 1138.38005,540.726643 L1138.507,540.553307 C1138.11883,540.484945 1137.73063,540.423914 1137.34245,540.326258 C1131.18524,538.797957 1125.88753,534.889297 1122.61631,529.454461 C1119.34239,524.022375 1118.36096,517.511421 1119.88926,511.356465 L1136.51539,444.344444 C1140.50218,428.280184 1122.88299,432.103281 1115.57804,434.312641 C1114.9799,434.490864 1114.33049,434.327289 1113.88862,433.882956 C1113.44917,433.441066 1113.2856,432.791651 1113.46626,432.193531 L1115.60006,425.049832 C1115.96138,423.804716 1116.69867,422.701224 1117.70942,421.890667 C1129.75745,412.652608 1145.18734,409.024509 1160.08974,411.927613 C1160.08974,411.927613 1161.01017,412.088743 1161.47398,412.203492 L1161.47154,412.203492 C1167.62874,413.731794 1172.92645,417.642891 1176.19768,423.07529 C1179.4716,428.507376 1180.45303,435.018329 1178.92472,441.173285 L1161.44172,511.641532 C1160.66048,523.75832 1176.14849,520.38147 1182.88907,518.340859 L1182.89151,518.340859 C1183.48965,518.162635 1184.13907,518.326211 1184.5785,518.770544 C1185.02039,519.212434 1185.18152,519.861848 1185.00086,520.459969 L1185.00103,520.460725 Z M1169.58864,402.336569 C1162.95306,402.336569 1156.58811,399.699838 1151.89564,395.009746 C1147.2033,390.317405 1144.56632,383.95295 1144.56632,377.316748 C1144.56632,370.68117 1147.20305,364.316216 1151.89564,359.626249 C1156.58798,354.933908 1162.95244,352.296926 1169.58864,352.296926 C1176.22422,352.296926 1182.58667,354.933658 1187.27914,359.623749 C1191.97148,364.316091 1194.60846,370.680545 1194.60846,377.316748 C1194.60846,383.952325 1191.97173,390.31728 1187.27914,395.009746 C1182.5868,399.69965 1176.22422,402.336569 1169.58864,402.336569 Z" id="Shape"></path>
        </g>
    </g>
</svg>